<?xml version="1.0" standalone="no"?>
<!DOCTYPE svg PUBLIC "-//W3C//DTD SVG 20010904//EN"
 "http://www.w3.org/TR/2001/REC-SVG-20010904/DTD/svg10.dtd">
<svg version="1.0" xmlns="http://www.w3.org/2000/svg"
 width="250.000000pt" height="250.000000pt" viewBox="0 0 250.000000 250.000000"
 preserveAspectRatio="xMidYMid meet">

<g transform="translate(0.000000,250.000000) scale(0.100000,-0.100000)"
fill="#000000" stroke="none">
<path d="M0 1250 l0 -1250 1250 0 1250 0 0 1250 0 1250 -1250 0 -1250 0 0
-1250z m1435 670 c120 -18 266 -61 310 -94 20 -14 19 -19 -76 -243 l-18 -42
-80 34 c-194 82 -392 86 -468 10 -36 -36 -42 -68 -17 -103 25 -36 64 -51 270
-102 228 -58 303 -91 373 -165 61 -65 81 -110 88 -200 16 -201 -120 -366 -353
-430 -32 -9 -111 -18 -174 -22 -190 -9 -377 25 -528 97 l-83 39 14 33 c8 18
36 81 62 140 l47 106 62 -33 c133 -73 365 -114 484 -85 63 15 102 51 102 94 0
69 -45 93 -284 151 -184 44 -250 68 -314 112 -118 81 -169 206 -143 349 25
134 100 228 234 294 128 63 313 85 492 60z"/>
</g>
</svg>
